<svg id="Layer_1" data-name="Layer 1" xmlns="http://www.w3.org/2000/svg" viewBox="0 0 68.49 78.93"><defs><style>.cls-1{font-size:16.66px;stroke:#005e9c;stroke-miterlimit:10;stroke-width:0.5px;font-family:OpenSans-Bold, Open Sans;font-weight:700;}.cls-1,.cls-5{fill:#005e9c;}.cls-2,.cls-3,.cls-4{font-size:12.6px;}.cls-2{letter-spacing:-0.02em;}.cls-4{letter-spacing:0.02em;}.cls-6{fill:#00948f;}</style></defs><title>mini_logo_round_version_EIONET_02_71x83</title><text class="cls-1" transform="translate(16.34 73.8)">E<tspan class="cls-2" x="9.33" y="0">IO</tspan><tspan class="cls-3" x="23.03" y="0">N</tspan><tspan class="cls-4" x="33.27" y="0">E</tspan><tspan class="cls-3" x="40.57" y="0">T</tspan></text><path class="cls-5" d="M48.7,33.23a13.65,13.65,0,0,0-4-9.71,14.17,14.17,0,0,0-1.62-1.39l-2.15,3.61a9.58,9.58,0,0,1,3.85,7.49,9.78,9.78,0,0,1-13.36,9.1l-2,3.44A13.72,13.72,0,0,0,48.7,33.23Z" transform="translate(-1.34 -3.12)"/><path class="cls-6" d="M45.21,8.38a19,19,0,0,0-.35-3.55l-.08-.38-.28.26a20.39,20.39,0,0,0-2.45,2.66C38,12.6,35.93,19.58,37.14,24l0,.13.13,0a7.08,7.08,0,0,1,.73.18c.26.09.53.19.78.3l.12.06.1-.08C42.7,21.74,45.3,14.93,45.21,8.38Z" transform="translate(-1.34 -3.12)"/><path class="cls-6" d="M31.25,3.43,31,3.12l-.14.36a20.42,20.42,0,0,0-1,3.47c-1.33,6.48-.09,13.66,2.94,17.07l.09.1.13,0a6.86,6.86,0,0,1,.73-.16,5.69,5.69,0,0,1,.83-.07h.13l.06-.12c2-4.18,1.35-11.44-1.62-17.27A20.6,20.6,0,0,0,31.25,3.43Z" transform="translate(-1.34 -3.12)"/><path class="cls-6" d="M21.45,10.07a19.57,19.57,0,0,0-3-1.88L18.07,8l0,.38A20.75,20.75,0,0,0,18.72,12c1.67,6.4,6,12.28,10.19,14L29,26l.1-.09a7.27,7.27,0,0,1,.58-.46,7.71,7.71,0,0,1,.72-.44l.12-.06v-.13C30.52,20.2,26.69,14,21.45,10.07Z" transform="translate(-1.34 -3.12)"/><path class="cls-6" d="M11,21.39c4.32,5,10.77,8.39,15.33,8.06h.13l0-.12a7.22,7.22,0,0,1,.32-.68,7.68,7.68,0,0,1,.45-.71l.08-.1-.06-.12c-2.08-4.15-8.26-8-14.69-9.23A20.51,20.51,0,0,0,9,18.13H8.63l.19.33A21.37,21.37,0,0,0,11,21.39Z" transform="translate(-1.34 -3.12)"/><path class="cls-6" d="M25.47,33.72l.11-.07v-.13a6.17,6.17,0,0,1,0-.74,5.68,5.68,0,0,1,.09-.84l0-.13-.1-.08c-3.71-2.8-11-3.55-17.26-1.78A19.42,19.42,0,0,0,5,31.21l-.34.17.32.21a21.5,21.5,0,0,0,3.21,1.68C14.25,35.84,21.53,36,25.47,33.72Z" transform="translate(-1.34 -3.12)"/><path class="cls-6" d="M26.54,38l.07-.11-.07-.12a7.07,7.07,0,0,1-.62-1.45l0-.13-.13,0c-4.56-.88-11.4,1.66-16.27,6A20.34,20.34,0,0,0,7,44.81l-.23.3.38,0a20.54,20.54,0,0,0,3.62.08C17.41,44.86,24,41.81,26.54,38Z" transform="translate(-1.34 -3.12)"/><path class="cls-6" d="M28.73,40.64a8.21,8.21,0,0,1-.6-.58L28,40l-.13,0C23.43,41.22,18.42,46.53,16,52.6A19,19,0,0,0,15,56l-.07.37.35-.12a21.87,21.87,0,0,0,3.29-1.52c5.75-3.27,10.33-8.93,10.91-13.46v-.13l-.11-.08A7.15,7.15,0,0,1,28.73,40.64Z" transform="translate(-1.34 -3.12)"/><path class="cls-5" d="M61,37.35a20.7,20.7,0,0,0,2.94-1c.12-1,.11-3.71.1-4a20.37,20.37,0,0,0-2.78-1.13,31.18,31.18,0,0,0-6.27-1,9.79,9.79,0,0,0-.48-2.12,30.92,30.92,0,0,0,5.35-3.53,19.65,19.65,0,0,0,2.06-2.18,26.84,26.84,0,0,0-1.77-3.66,21.06,21.06,0,0,0-2.92.33,32,32,0,0,0-6,2.08,9.82,9.82,0,0,0-1.42-1.64,30.86,30.86,0,0,0,3.07-5.63,17.41,17.41,0,0,0,.74-2.8,29.22,29.22,0,0,0-2.66-2L44.66,20a16.58,16.58,0,0,1,1.92,1.65,16.4,16.4,0,0,1-18.23,26.6L22,59.17a30.6,30.6,0,0,0,3,1.29,20.1,20.1,0,0,0,1.87-2A31.5,31.5,0,0,0,30.15,53a10.4,10.4,0,0,0,2.14.36,30.8,30.8,0,0,0,1.26,6.28,21.9,21.9,0,0,0,1.17,2.7c.09,0,2.91-.09,4.2-.27a22.51,22.51,0,0,0,.73-2.81A31.64,31.64,0,0,0,40,52.92,9.79,9.79,0,0,0,42,52.23a30.69,30.69,0,0,0,4.06,5A21.07,21.07,0,0,0,48.46,59,27.78,27.78,0,0,0,52,56.8,22.15,22.15,0,0,0,51.3,54a32,32,0,0,0-2.7-5.76,9.39,9.39,0,0,0,1.49-1.58A30,30,0,0,0,56,49.12a19.26,19.26,0,0,0,3,.52,27.14,27.14,0,0,0,2.08-3.54,20.8,20.8,0,0,0-2-2.24A31.26,31.26,0,0,0,54,40,9.18,9.18,0,0,0,54.59,38,30.76,30.76,0,0,0,61,37.35Z" transform="translate(-1.34 -3.12)"/><path class="cls-6" d="M62.4,62.72c4-5.19,6.07-13.34,5.53-20.2-.42-5.36-1.36-10.21-4.32-14.26l-.2-.28,2.32-1.36A32.46,32.46,0,0,1,61.25,64.4" transform="translate(-1.34 -3.12)"/><path class="cls-5" d="M15.87,69.7C10.54,65.91,6.14,58.74,4.63,52c-1.17-5.25-1.7-10.16-.07-14.9l.11-.33-2.61-.62A32.45,32.45,0,0,0,17.46,71" transform="translate(-1.34 -3.12)"/></svg>