<svg width="179" height="85" viewBox="0 0 179 85" fill="none" xmlns="http://www.w3.org/2000/svg">
<path fill-rule="evenodd" clip-rule="evenodd" d="M96.7982 39.9486C90.4339 39.9486 85.2746 45.1079 85.2746 51.4722C85.2746 57.8365 90.4339 62.9958 96.7982 62.9958C103.163 62.9958 108.322 57.8365 108.322 51.4722C108.322 45.1079 103.163 39.9486 96.7982 39.9486ZM83.7382 51.4722C83.7382 44.2593 89.5854 38.4121 96.7982 38.4121C104.011 38.4121 109.858 44.2593 109.858 51.4722C109.858 58.6851 104.011 64.5323 96.7982 64.5323C89.5854 64.5323 83.7382 58.6851 83.7382 51.4722Z" fill="#1D7BAB"/>
<path fill-rule="evenodd" clip-rule="evenodd" d="M96.7983 33.0344C86.6154 33.0344 78.3605 41.2893 78.3605 51.4722C78.3605 61.6551 86.6154 69.9099 96.7983 69.9099C106.981 69.9099 115.236 61.6551 115.236 51.4722C115.236 41.2893 106.981 33.0344 96.7983 33.0344ZM75.2875 51.4722C75.2875 39.5921 84.9182 29.9614 96.7983 29.9614C108.678 29.9614 118.309 39.5921 118.309 51.4722C118.309 63.3522 108.678 72.9829 96.7983 72.9829C84.9182 72.9829 75.2875 63.3522 75.2875 51.4722Z" fill="#1D7BAB"/>
<circle cx="96.7983" cy="22.2789" r="3.8412" fill="#1D7BAB"/>
<circle cx="96.7983" cy="80.6652" r="3.8412" fill="#1D7BAB"/>
<circle cx="125.991" cy="51.4721" r="3.8412" transform="rotate(90 125.991 51.4721)" fill="#1D7BAB"/>
<circle cx="67.6051" cy="51.4721" r="3.8412" transform="rotate(90 67.6051 51.4721)" fill="#1D7BAB"/>
<circle cx="117.441" cy="72.1147" r="3.8412" transform="rotate(135 117.441 72.1147)" fill="#1D7BAB"/>
<circle cx="76.1556" cy="30.8293" r="3.8412" transform="rotate(135 76.1556 30.8293)" fill="#1D7BAB"/>
<circle cx="76.1556" cy="72.1148" r="3.8412" transform="rotate(-135 76.1556 72.1148)" fill="#1D7BAB"/>
<circle cx="117.441" cy="30.8294" r="3.8412" transform="rotate(-135 117.441 30.8294)" fill="#1D7BAB"/>
<path fill-rule="evenodd" clip-rule="evenodd" d="M14.9807 13.5962C17.8668 13.5962 20.2065 15.9359 20.2065 18.822C20.2065 21.7082 17.8668 24.0478 14.9807 24.0478C12.0945 24.0478 9.75484 21.7082 9.75484 18.822C9.75484 15.9359 12.0945 13.5962 14.9807 13.5962ZM20.9033 18.822C20.9033 15.5511 18.2516 12.8994 14.9807 12.8994C11.7097 12.8994 9.05807 15.5511 9.05807 18.822C9.05807 22.093 11.7097 24.7446 14.9807 24.7446C18.2516 24.7446 20.9033 22.093 20.9033 18.822Z" fill="#1D7BAB"/>
<path fill-rule="evenodd" clip-rule="evenodd" d="M14.9807 10.4607C19.5985 10.4607 23.342 14.2042 23.342 18.822C23.342 23.4398 19.5985 27.1833 14.9807 27.1833C10.3628 27.1833 6.61936 23.4398 6.61936 18.822C6.61936 14.2042 10.3628 10.4607 14.9807 10.4607ZM24.7355 18.822C24.7355 13.4345 20.3681 9.06714 14.9807 9.06714C9.59321 9.06714 5.22581 13.4345 5.22581 18.822C5.22581 24.2095 9.59321 28.5769 14.9807 28.5769C20.3681 28.5769 24.7355 24.2095 24.7355 18.822Z" fill="#1D7BAB"/>
<circle r="1.74194" transform="matrix(-1 0 0 1 14.9807 5.58325)" fill="#1D7BAB"/>
<circle r="1.74194" transform="matrix(-1 0 0 1 14.9807 32.0608)" fill="#1D7BAB"/>
<circle r="1.74194" transform="matrix(4.37114e-08 1 1 -4.37114e-08 1.74194 18.822)" fill="#1D7BAB"/>
<circle r="1.74194" transform="matrix(0.707107 0.707107 0.707107 -0.707107 5.61942 28.1833)" fill="#1D7BAB"/>
<circle r="1.74194" transform="matrix(0.707107 0.707107 0.707107 -0.707107 24.3419 9.46069)" fill="#1D7BAB"/>
<circle r="1.74194" transform="matrix(0.707107 -0.707107 -0.707107 -0.707107 5.61945 9.46084)" fill="#1D7BAB"/>
<path fill-rule="evenodd" clip-rule="evenodd" d="M20.3584 56.8498C17.1762 56.8498 14.5965 59.4294 14.5965 62.6116C14.5965 65.7937 17.1762 68.3734 20.3584 68.3734C23.5405 68.3734 26.1202 65.7937 26.1202 62.6116C26.1202 59.4294 23.5405 56.8498 20.3584 56.8498ZM13.8283 62.6116C13.8283 59.0051 16.7519 56.0815 20.3584 56.0815C23.9648 56.0815 26.8884 59.0051 26.8884 62.6116C26.8884 66.218 23.9648 69.1416 20.3584 69.1416C16.7519 69.1416 13.8283 66.218 13.8283 62.6116Z" fill="#1D7BAB"/>
<path fill-rule="evenodd" clip-rule="evenodd" d="M20.3584 53.3929C15.2669 53.3929 11.1395 57.5204 11.1395 62.6118C11.1395 67.7033 15.2669 71.8307 20.3584 71.8307C25.4498 71.8307 29.5773 67.7033 29.5773 62.6118C29.5773 57.5204 25.4498 53.3929 20.3584 53.3929ZM9.60303 62.6118C9.60303 56.6718 14.4184 51.8564 20.3584 51.8564C26.2984 51.8564 31.1138 56.6718 31.1138 62.6118C31.1138 68.5518 26.2984 73.3672 20.3584 73.3672C14.4184 73.3672 9.60303 68.5518 9.60303 62.6118Z" fill="#1D7BAB"/>
<circle cx="20.3583" cy="48.0151" r="1.9206" fill="#1D7BAB"/>
<circle cx="20.3583" cy="77.2082" r="1.9206" fill="#1D7BAB"/>
<circle cx="34.9549" cy="62.6118" r="1.9206" transform="rotate(90 34.9549 62.6118)" fill="#1D7BAB"/>
<circle cx="5.76177" cy="62.6118" r="1.9206" transform="rotate(90 5.76177 62.6118)" fill="#1D7BAB"/>
<circle cx="30.6797" cy="72.9331" r="1.9206" transform="rotate(135 30.6797 72.9331)" fill="#1D7BAB"/>
<circle cx="10.037" cy="52.2903" r="1.9206" transform="rotate(135 10.037 52.2903)" fill="#1D7BAB"/>
<circle cx="10.037" cy="72.933" r="1.9206" transform="rotate(-135 10.037 72.933)" fill="#1D7BAB"/>
<path fill-rule="evenodd" clip-rule="evenodd" d="M48.3991 24.4586C43.6629 24.4586 39.8234 28.2981 39.8234 33.0343C39.8234 37.7705 43.6629 41.61 48.3991 41.61C53.1354 41.61 56.9748 37.7705 56.9748 33.0343C56.9748 28.2981 53.1354 24.4586 48.3991 24.4586ZM38.68 33.0343C38.68 27.6666 43.0314 23.3152 48.3991 23.3152C53.7669 23.3152 58.1183 27.6666 58.1183 33.0343C58.1183 38.402 53.7669 42.7535 48.3991 42.7535C43.0314 42.7535 38.68 38.402 38.68 33.0343Z" fill="#1D7BAB"/>
<path fill-rule="evenodd" clip-rule="evenodd" d="M48.3992 19.3132C40.8212 19.3132 34.678 25.4564 34.678 33.0343C34.678 40.6123 40.8212 46.7555 48.3992 46.7555C55.9771 46.7555 62.1203 40.6123 62.1203 33.0343C62.1203 25.4564 55.9771 19.3132 48.3992 19.3132ZM32.3912 33.0343C32.3912 24.1934 39.5582 17.0264 48.3992 17.0264C57.2401 17.0264 64.4071 24.1934 64.4071 33.0343C64.4071 41.8753 57.2401 49.0423 48.3992 49.0423C39.5582 49.0423 32.3912 41.8753 32.3912 33.0343Z" fill="#1D7BAB"/>
<circle cx="48.3991" cy="11.3093" r="2.85857" fill="#1D7BAB"/>
<circle cx="48.3991" cy="54.7594" r="2.85857" fill="#1D7BAB"/>
<circle cx="26.674" cy="33.0344" r="2.85857" transform="rotate(90 26.674 33.0344)" fill="#1D7BAB"/>
<circle cx="33.0371" cy="17.6724" r="2.85857" transform="rotate(135 33.0371 17.6724)" fill="#1D7BAB"/>
<circle cx="33.0372" cy="48.3963" r="2.85857" transform="rotate(-135 33.0372 48.3963)" fill="#1D7BAB"/>
<circle cx="63.7611" cy="17.6725" r="2.85857" transform="rotate(-135 63.7611 17.6725)" fill="#1D7BAB"/>
<path fill-rule="evenodd" clip-rule="evenodd" d="M160.562 37.3581C157.01 37.3581 154.13 40.2377 154.13 43.7898C154.13 47.342 157.01 50.2216 160.562 50.2216C164.114 50.2216 166.994 47.342 166.994 43.7898C166.994 40.2377 164.114 37.3581 160.562 37.3581ZM153.273 43.7898C153.273 39.764 156.536 36.5005 160.562 36.5005C164.588 36.5005 167.852 39.764 167.852 43.7898C167.852 47.8156 164.588 51.0792 160.562 51.0792C156.536 51.0792 153.273 47.8156 153.273 43.7898Z" fill="#1D7BAB"/>
<path fill-rule="evenodd" clip-rule="evenodd" d="M160.562 33.4988C154.879 33.4988 150.271 38.1062 150.271 43.7897C150.271 49.4732 154.879 54.0805 160.562 54.0805C166.246 54.0805 170.853 49.4732 170.853 43.7897C170.853 38.1062 166.246 33.4988 160.562 33.4988ZM148.556 43.7897C148.556 37.159 153.931 31.7837 160.562 31.7837C167.193 31.7837 172.568 37.159 172.568 43.7897C172.568 50.4204 167.193 55.7957 160.562 55.7957C153.931 55.7957 148.556 50.4204 148.556 43.7897Z" fill="#1D7BAB"/>
<circle cx="160.562" cy="27.496" r="2.14393" fill="#1D7BAB"/>
<circle cx="160.562" cy="60.0836" r="2.14393" fill="#1D7BAB"/>
<circle cx="176.856" cy="43.7899" r="2.14393" transform="rotate(90 176.856 43.7899)" fill="#1D7BAB"/>
<circle cx="144.268" cy="43.7899" r="2.14393" transform="rotate(90 144.268 43.7899)" fill="#1D7BAB"/>
<circle cx="172.084" cy="55.3113" r="2.14393" transform="rotate(135 172.084 55.3113)" fill="#1D7BAB"/>
<circle cx="149.041" cy="32.2683" r="2.14393" transform="rotate(135 149.041 32.2683)" fill="#1D7BAB"/>
<circle cx="149.041" cy="55.3113" r="2.14393" transform="rotate(-135 149.041 55.3113)" fill="#1D7BAB"/>
<circle cx="172.084" cy="32.2683" r="2.14393" transform="rotate(-135 172.084 32.2683)" fill="#1D7BAB"/>
<path fill-rule="evenodd" clip-rule="evenodd" d="M132.906 12.2561C129.279 12.2561 126.34 15.1956 126.34 18.8218C126.34 22.448 129.279 25.3876 132.906 25.3876C136.532 25.3876 139.471 22.448 139.471 18.8218C139.471 15.1956 136.532 12.2561 132.906 12.2561ZM125.464 18.8218C125.464 14.7122 128.796 11.3806 132.906 11.3806C137.015 11.3806 140.347 14.7122 140.347 18.8218C140.347 22.9315 137.015 26.263 132.906 26.263C128.796 26.263 125.464 22.9315 125.464 18.8218Z" fill="#1D7BAB"/>
<path fill-rule="evenodd" clip-rule="evenodd" d="M132.906 8.31655C127.104 8.31655 122.4 13.0199 122.4 18.8218C122.4 24.6237 127.104 29.327 132.906 29.327C138.707 29.327 143.411 24.6237 143.411 18.8218C143.411 13.0199 138.707 8.31655 132.906 8.31655ZM120.649 18.8218C120.649 12.0529 126.137 6.56567 132.906 6.56567C139.674 6.56567 145.162 12.0529 145.162 18.8218C145.162 25.5906 139.674 31.0779 132.906 31.0779C126.137 31.0779 120.649 25.5906 120.649 18.8218Z" fill="#1D7BAB"/>
<circle cx="132.906" cy="2.18859" r="2.18859" fill="#1D7BAB"/>
<circle cx="132.906" cy="35.4552" r="2.18859" fill="#1D7BAB"/>
<circle cx="149.539" cy="18.8219" r="2.18859" transform="rotate(90 149.539 18.8219)" fill="#1D7BAB"/>
<circle cx="116.272" cy="18.8219" r="2.18859" transform="rotate(90 116.272 18.8219)" fill="#1D7BAB"/>
<circle cx="121.144" cy="7.0603" r="2.18859" transform="rotate(135 121.144 7.0603)" fill="#1D7BAB"/>
<circle cx="144.667" cy="7.06038" r="2.18859" transform="rotate(-135 144.667 7.06038)" fill="#1D7BAB"/>
<path fill-rule="evenodd" clip-rule="evenodd" d="M139.029 62.2275C135.847 62.2275 133.267 64.8071 133.267 67.9893C133.267 71.1714 135.847 73.7511 139.029 73.7511C142.211 73.7511 144.791 71.1714 144.791 67.9893C144.791 64.8071 142.211 62.2275 139.029 62.2275ZM132.499 67.9893C132.499 64.3828 135.422 61.4592 139.029 61.4592C142.635 61.4592 145.559 64.3828 145.559 67.9893C145.559 71.5957 142.635 74.5193 139.029 74.5193C135.422 74.5193 132.499 71.5957 132.499 67.9893Z" fill="#1D7BAB"/>
<path fill-rule="evenodd" clip-rule="evenodd" d="M139.029 58.7704C133.937 58.7704 129.81 62.8978 129.81 67.9892C129.81 73.0807 133.937 77.2081 139.029 77.2081C144.12 77.2081 148.248 73.0807 148.248 67.9892C148.248 62.8978 144.12 58.7704 139.029 58.7704ZM128.273 67.9892C128.273 62.0492 133.089 57.2339 139.029 57.2339C144.969 57.2339 149.784 62.0492 149.784 67.9892C149.784 73.9293 144.969 78.7446 139.029 78.7446C133.089 78.7446 128.273 73.9293 128.273 67.9892Z" fill="#1D7BAB"/>
<circle cx="139.029" cy="82.5859" r="1.9206" fill="#1D7BAB"/>
<circle cx="153.625" cy="67.9892" r="1.9206" transform="rotate(90 153.625 67.9892)" fill="#1D7BAB"/>
<circle cx="149.35" cy="78.3105" r="1.9206" transform="rotate(135 149.35 78.3105)" fill="#1D7BAB"/>
<circle cx="128.708" cy="78.3107" r="1.9206" transform="rotate(-135 128.708 78.3107)" fill="#1D7BAB"/>
</svg>
